<svg xmlns="http://www.w3.org/2000/svg" viewBox="0 0 436 96" role="img" aria-labelledby="title desc">
  <title id="title">Collins Oden logo</title>
  <desc id="desc">Collins Oden wordmark paired with a warm monogram symbol.</desc>
  <defs>
    <linearGradient id="bg" x1="12" y1="12" x2="84" y2="84" gradientUnits="userSpaceOnUse">
      <stop offset="0" stop-color="#f97316" />
      <stop offset="1" stop-color="#f59e0b" />
    </linearGradient>
    <linearGradient id="shine" x1="24" y1="24" x2="72" y2="72" gradientUnits="userSpaceOnUse">
      <stop offset="0" stop-color="#ffffff" stop-opacity="0.96" />
      <stop offset="1" stop-color="#fff7ed" stop-opacity="0.72" />
    </linearGradient>
  </defs>
  <rect width="436" height="96" rx="24" fill="#0f172a" />
  <rect x="8" y="8" width="80" height="80" rx="24" fill="url(#bg)" />
  <path
    d="M46 24c-11.26 0-19 8.14-19 19.98C27 55.83 34.74 64 46 64c5.79 0 10.84-1.89 14.71-5.86l-5.88-5.93c-2.25 2.15-5.04 3.29-8.4 3.29-6.27 0-10.61-4.54-10.61-11.52 0-6.87 4.34-11.49 10.61-11.49 3.36 0 6.19 1.17 8.4 3.31l5.88-5.94C56.79 25.89 51.79 24 46 24Z"
    fill="url(#shine)"
  />
  <path
    d="M63.5 26.25c-10.23 0-18 7.65-18 17.73s7.77 17.77 18 17.77 18-7.73 18-17.77-7.77-17.73-18-17.73Zm0 8.97c5.06 0 8.84 3.9 8.84 8.76 0 4.97-3.78 8.86-8.84 8.86-5.02 0-8.8-3.89-8.8-8.86 0-4.86 3.78-8.76 8.8-8.76Z"
    fill="#111827"
    fill-opacity="0.94"
  />
  <circle cx="30" cy="24" r="3" fill="#fff7ed" fill-opacity="0.64" />
  <text x="112" y="42" fill="#fff7ed" font-family="Avenir Next, Segoe UI, Arial, sans-serif" font-size="15" letter-spacing="3.2">COLLINS ODEN</text>
  <text x="112" y="69" fill="#cbd5e1" font-family="Avenir Next, Segoe UI, Arial, sans-serif" font-size="28" font-weight="700">Fullstack Software Engineer</text>
</svg>
