<svg xmlns="http://www.w3.org/2000/svg" viewBox="0 0 64 64" role="img" aria-labelledby="title desc">
  <title id="title">Collins Oden favicon</title>
  <desc id="desc">Rounded square monogram mark with the letters C and O.</desc>
  <defs>
    <linearGradient id="bg" x1="10" y1="8" x2="54" y2="56" gradientUnits="userSpaceOnUse">
      <stop offset="0" stop-color="#f97316" />
      <stop offset="1" stop-color="#f59e0b" />
    </linearGradient>
    <linearGradient id="shine" x1="18" y1="16" x2="48" y2="48" gradientUnits="userSpaceOnUse">
      <stop offset="0" stop-color="#ffffff" stop-opacity="0.95" />
      <stop offset="1" stop-color="#fff7ed" stop-opacity="0.72" />
    </linearGradient>
  </defs>
  <rect x="4" y="4" width="56" height="56" rx="18" fill="#111827" />
  <rect x="6" y="6" width="52" height="52" rx="16" fill="url(#bg)" />
  <path
    d="M31 19c-7.59 0-13 5.52-13 13s5.41 13 13 13c3.75 0 7.08-1.22 9.56-3.8l-4.26-4.33A6.62 6.62 0 0 1 31 39c-4.03 0-6.86-2.94-6.86-7s2.83-7 6.86-7c2.1 0 4 .8 5.35 2.16l4.34-4.31C38.15 20.28 34.81 19 31 19Z"
    fill="url(#shine)"
  />
  <path
    d="M43 20.5c-6.51 0-11.5 4.88-11.5 11.5S36.49 43.5 43 43.5 54.5 38.51 54.5 32 49.51 20.5 43 20.5Zm0 6.08c3.09 0 5.42 2.4 5.42 5.42S46.09 37.42 43 37.42 37.58 35.09 37.58 32 39.91 26.58 43 26.58Z"
    fill="#111827"
    fill-opacity="0.92"
  />
  <circle cx="22" cy="19" r="2" fill="#fff7ed" fill-opacity="0.65" />
</svg>
